<?xml version="1.0" encoding="UTF-8"?>
<!--Generator: Apple Native CoreSVG 341-->
<!DOCTYPE svg
PUBLIC "-//W3C//DTD SVG 1.1//EN"
       "http://www.w3.org/Graphics/SVG/1.1/DTD/svg11.dtd">
<svg version="1.1" xmlns="http://www.w3.org/2000/svg" xmlns:xlink="http://www.w3.org/1999/xlink" viewBox="0 0 37.2344 32.9219">
 <g>
  <rect height="32.9219" opacity="0" width="37.2344" x="0" y="0"/>
  <path d="M12.7031 25.3281L30.9375 25.3281C31.5469 25.3281 32.0781 24.8281 32.0781 24.1562C32.0781 23.4844 31.5469 22.9844 30.9375 22.9844L12.9688 22.9844C12.0781 22.9844 11.5312 22.3594 11.3906 21.4062L8.82812 4.01562C8.67188 2.8125 8.23438 2.20312 6.64062 2.20312L1.15625 2.20312C0.53125 2.20312 0 2.75 0 3.375C0 4.01562 0.53125 4.5625 1.15625 4.5625L6.4375 4.5625L8.9375 21.7188C9.26562 23.9375 10.4375 25.3281 12.7031 25.3281ZM9.82812 19.7656L30.9688 19.7656C33.25 19.7656 34.4219 18.3594 34.75 16.125L36 7.85938C36.0312 7.65625 36.0625 7.40625 36.0625 7.26562C36.0625 6.51562 35.5 6 34.6406 6L8.46875 6L8.48438 8.35938L33.4062 8.35938L32.2969 15.8438C32.1719 16.8125 31.6562 17.4219 30.7344 17.4219L9.79688 17.4219ZM13.9375 32.9219C15.3438 32.9219 16.4688 31.8125 16.4688 30.3906C16.4688 28.9844 15.3438 27.8594 13.9375 27.8594C12.5156 27.8594 11.3906 28.9844 11.3906 30.3906C11.3906 31.8125 12.5156 32.9219 13.9375 32.9219ZM28.5469 32.9219C29.9688 32.9219 31.0938 31.8125 31.0938 30.3906C31.0938 28.9844 29.9688 27.8594 28.5469 27.8594C27.1406 27.8594 26 28.9844 26 30.3906C26 31.8125 27.1406 32.9219 28.5469 32.9219Z" fill="white" fill-opacity="0.85"/>
 </g>
</svg>
